# xmcd CD database file
#
# Track frame offsets:
#	150
#	25526
#	53984
#	69899
#	109009
#	139444
#	163249
#	188053
#
# Disc length: 2792 seconds
#
# Revision: 3
# Processed by: cddbd v1.5.2PL0 Copyright (c) Steve Scherf et al.
# Submitted via: CDex 1.70beta2
#
DISCID=690ae608
DTITLE=Grace Jones - Warm Leatherette
DYEAR=1980
DGENRE=Club
TTITLE0=Warm Leatherette■f
TTITLE1=Private Life■f
TTITLE2=A Rolling Stone■f
TTITLE3=Love Is The Drug■f
TTITLE4=The Hunter Gets Captured By The Game■f
TTITLE5=Bullshit■f
TTITLE6=Breakdown■f
TTITLE7=Pars■f
EXTD=YEAR: 1980
EXTT0=
EXTT1=
EXTT2=
EXTT3=
EXTT4=
EXTT5=
EXTT6=
EXTT7=
PLAYORDER=
